<?xml version="1.0" encoding="utf-8" standalone="no"?>
<!DOCTYPE svg PUBLIC "-//W3C//DTD SVG 1.1//EN"
  "http://www.w3.org/Graphics/SVG/1.1/DTD/svg11.dtd">
<svg xmlns:xlink="http://www.w3.org/1999/xlink" width="460.8pt" height="345.6pt" viewBox="0 0 460.8 345.6" xmlns="http://www.w3.org/2000/svg" version="1.1">
 <metadata>
  <rdf:RDF xmlns:dc="http://purl.org/dc/elements/1.1/" xmlns:cc="http://creativecommons.org/ns#" xmlns:rdf="http://www.w3.org/1999/02/22-rdf-syntax-ns#">
   <cc:Work>
    <dc:type rdf:resource="http://purl.org/dc/dcmitype/StillImage"/>
    <dc:date>2025-09-19T17:17:09.822650</dc:date>
    <dc:format>image/svg+xml</dc:format>
    <dc:creator>
     <cc:Agent>
      <dc:title>Matplotlib v3.10.6, https://matplotlib.org/</dc:title>
     </cc:Agent>
    </dc:creator>
   </cc:Work>
  </rdf:RDF>
 </metadata>
 <defs>
  <style type="text/css">*{stroke-linejoin: round; stroke-linecap: butt}</style>
 </defs>
 <g id="figure_1">
  <g id="patch_1">
   <path d="M 0 345.6 
L 460.8 345.6 
L 460.8 0 
L 0 0 
z
" style="fill: #ffffff"/>
  </g>
  <g id="axes_1">
   <g id="patch_2">
    <path d="M 57.6 307.584 
L 414.72 307.584 
L 414.72 41.472 
L 57.6 41.472 
z
" style="fill: #ffffff"/>
   </g>
   <g id="matplotlib.axis_1">
    <g id="xtick_1">
     <g id="line2d_1">
      <path d="M 70.536742 307.584 
L 70.536742 41.472 
" clip-path="url(#pbc86044d48)" style="fill: none; stroke: #b0b0b0; stroke-width: 0.8; stroke-linecap: square"/>
     </g>
     <g id="line2d_2">
      <defs>
       <path id="mc2f41c3ea8" d="M 0 0 
L 0 3.5 
" style="stroke: #000000; stroke-width: 0.8"/>
      </defs>
      <g>
       <use xlink:href="#mc2f41c3ea8" x="70.536742" y="307.584" style="stroke: #000000; stroke-width: 0.8"/>
      </g>
     </g>
     <g id="text_1">
      <!-- 0 -->
      <g transform="translate(67.355492 322.182437) scale(0.1 -0.1)">
       <defs>
        <path id="DejaVuSans-30" d="M 2034 4250 
Q 1547 4250 1301 3770 
Q 1056 3291 1056 2328 
Q 1056 1369 1301 889 
Q 1547 409 2034 409 
Q 2525 409 2770 889 
Q 3016 1369 3016 2328 
Q 3016 3291 2770 3770 
Q 2525 4250 2034 4250 
z
M 2034 4750 
Q 2819 4750 3233 4129 
Q 3647 3509 3647 2328 
Q 3647 1150 3233 529 
Q 2819 -91 2034 -91 
Q 1250 -91 836 529 
Q 422 1150 422 2328 
Q 422 3509 836 4129 
Q 1250 4750 2034 4750 
z
" transform="scale(0.015625)"/>
       </defs>
       <use xlink:href="#DejaVuSans-30"/>
      </g>
     </g>
    </g>
    <g id="xtick_2">
     <g id="line2d_3">
      <path d="M 136.456447 307.584 
L 136.456447 41.472 
" clip-path="url(#pbc86044d48)" style="fill: none; stroke: #b0b0b0; stroke-width: 0.8; stroke-linecap: square"/>
     </g>
     <g id="line2d_4">
      <g>
       <use xlink:href="#mc2f41c3ea8" x="136.456447" y="307.584" style="stroke: #000000; stroke-width: 0.8"/>
      </g>
     </g>
     <g id="text_2">
      <!-- 2 -->
      <g transform="translate(133.275197 322.182437) scale(0.1 -0.1)">
       <defs>
        <path id="DejaVuSans-32" d="M 1228 531 
L 3431 531 
L 3431 0 
L 469 0 
L 469 531 
Q 828 903 1448 1529 
Q 2069 2156 2228 2338 
Q 2531 2678 2651 2914 
Q 2772 3150 2772 3378 
Q 2772 3750 2511 3984 
Q 2250 4219 1831 4219 
Q 1534 4219 1204 4116 
Q 875 4013 500 3803 
L 500 4441 
Q 881 4594 1212 4672 
Q 1544 4750 1819 4750 
Q 2544 4750 2975 4387 
Q 3406 4025 3406 3419 
Q 3406 3131 3298 2873 
Q 3191 2616 2906 2266 
Q 2828 2175 2409 1742 
Q 1991 1309 1228 531 
z
" transform="scale(0.015625)"/>
       </defs>
       <use xlink:href="#DejaVuSans-32"/>
      </g>
     </g>
    </g>
    <g id="xtick_3">
     <g id="line2d_5">
      <path d="M 202.376151 307.584 
L 202.376151 41.472 
" clip-path="url(#pbc86044d48)" style="fill: none; stroke: #b0b0b0; stroke-width: 0.8; stroke-linecap: square"/>
     </g>
     <g id="line2d_6">
      <g>
       <use xlink:href="#mc2f41c3ea8" x="202.376151" y="307.584" style="stroke: #000000; stroke-width: 0.8"/>
      </g>
     </g>
     <g id="text_3">
      <!-- 4 -->
      <g transform="translate(199.194901 322.182437) scale(0.1 -0.1)">
       <defs>
        <path id="DejaVuSans-34" d="M 2419 4116 
L 825 1625 
L 2419 1625 
L 2419 4116 
z
M 2253 4666 
L 3047 4666 
L 3047 1625 
L 3713 1625 
L 3713 1100 
L 3047 1100 
L 3047 0 
L 2419 0 
L 2419 1100 
L 313 1100 
L 313 1709 
L 2253 4666 
z
" transform="scale(0.015625)"/>
       </defs>
       <use xlink:href="#DejaVuSans-34"/>
      </g>
     </g>
    </g>
    <g id="xtick_4">
     <g id="line2d_7">
      <path d="M 268.295856 307.584 
L 268.295856 41.472 
" clip-path="url(#pbc86044d48)" style="fill: none; stroke: #b0b0b0; stroke-width: 0.8; stroke-linecap: square"/>
     </g>
     <g id="line2d_8">
      <g>
       <use xlink:href="#mc2f41c3ea8" x="268.295856" y="307.584" style="stroke: #000000; stroke-width: 0.8"/>
      </g>
     </g>
     <g id="text_4">
      <!-- 6 -->
      <g transform="translate(265.114606 322.182437) scale(0.1 -0.1)">
       <defs>
        <path id="DejaVuSans-36" d="M 2113 2584 
Q 1688 2584 1439 2293 
Q 1191 2003 1191 1497 
Q 1191 994 1439 701 
Q 1688 409 2113 409 
Q 2538 409 2786 701 
Q 3034 994 3034 1497 
Q 3034 2003 2786 2293 
Q 2538 2584 2113 2584 
z
M 3366 4563 
L 3366 3988 
Q 3128 4100 2886 4159 
Q 2644 4219 2406 4219 
Q 1781 4219 1451 3797 
Q 1122 3375 1075 2522 
Q 1259 2794 1537 2939 
Q 1816 3084 2150 3084 
Q 2853 3084 3261 2657 
Q 3669 2231 3669 1497 
Q 3669 778 3244 343 
Q 2819 -91 2113 -91 
Q 1303 -91 875 529 
Q 447 1150 447 2328 
Q 447 3434 972 4092 
Q 1497 4750 2381 4750 
Q 2619 4750 2861 4703 
Q 3103 4656 3366 4563 
z
" transform="scale(0.015625)"/>
       </defs>
       <use xlink:href="#DejaVuSans-36"/>
      </g>
     </g>
    </g>
    <g id="xtick_5">
     <g id="line2d_9">
      <path d="M 334.215561 307.584 
L 334.215561 41.472 
" clip-path="url(#pbc86044d48)" style="fill: none; stroke: #b0b0b0; stroke-width: 0.8; stroke-linecap: square"/>
     </g>
     <g id="line2d_10">
      <g>
       <use xlink:href="#mc2f41c3ea8" x="334.215561" y="307.584" style="stroke: #000000; stroke-width: 0.8"/>
      </g>
     </g>
     <g id="text_5">
      <!-- 8 -->
      <g transform="translate(331.034311 322.182437) scale(0.1 -0.1)">
       <defs>
        <path id="DejaVuSans-38" d="M 2034 2216 
Q 1584 2216 1326 1975 
Q 1069 1734 1069 1313 
Q 1069 891 1326 650 
Q 1584 409 2034 409 
Q 2484 409 2743 651 
Q 3003 894 3003 1313 
Q 3003 1734 2745 1975 
Q 2488 2216 2034 2216 
z
M 1403 2484 
Q 997 2584 770 2862 
Q 544 3141 544 3541 
Q 544 4100 942 4425 
Q 1341 4750 2034 4750 
Q 2731 4750 3128 4425 
Q 3525 4100 3525 3541 
Q 3525 3141 3298 2862 
Q 3072 2584 2669 2484 
Q 3125 2378 3379 2068 
Q 3634 1759 3634 1313 
Q 3634 634 3220 271 
Q 2806 -91 2034 -91 
Q 1263 -91 848 271 
Q 434 634 434 1313 
Q 434 1759 690 2068 
Q 947 2378 1403 2484 
z
M 1172 3481 
Q 1172 3119 1398 2916 
Q 1625 2713 2034 2713 
Q 2441 2713 2670 2916 
Q 2900 3119 2900 3481 
Q 2900 3844 2670 4047 
Q 2441 4250 2034 4250 
Q 1625 4250 1398 4047 
Q 1172 3844 1172 3481 
z
" transform="scale(0.015625)"/>
       </defs>
       <use xlink:href="#DejaVuSans-38"/>
      </g>
     </g>
    </g>
    <g id="xtick_6">
     <g id="line2d_11">
      <path d="M 400.135265 307.584 
L 400.135265 41.472 
" clip-path="url(#pbc86044d48)" style="fill: none; stroke: #b0b0b0; stroke-width: 0.8; stroke-linecap: square"/>
     </g>
     <g id="line2d_12">
      <g>
       <use xlink:href="#mc2f41c3ea8" x="400.135265" y="307.584" style="stroke: #000000; stroke-width: 0.8"/>
      </g>
     </g>
     <g id="text_6">
      <!-- 10 -->
      <g transform="translate(393.772765 322.182437) scale(0.1 -0.1)">
       <defs>
        <path id="DejaVuSans-31" d="M 794 531 
L 1825 531 
L 1825 4091 
L 703 3866 
L 703 4441 
L 1819 4666 
L 2450 4666 
L 2450 531 
L 3481 531 
L 3481 0 
L 794 0 
L 794 531 
z
" transform="scale(0.015625)"/>
       </defs>
       <use xlink:href="#DejaVuSans-31"/>
       <use xlink:href="#DejaVuSans-30" transform="translate(63.623047 0)"/>
      </g>
     </g>
    </g>
    <g id="text_7">
     <!-- UAV transmission power (W) -->
     <g transform="translate(164.9725 335.860562) scale(0.1 -0.1)">
      <defs>
       <path id="DejaVuSans-55" d="M 556 4666 
L 1191 4666 
L 1191 1831 
Q 1191 1081 1462 751 
Q 1734 422 2344 422 
Q 2950 422 3222 751 
Q 3494 1081 3494 1831 
L 3494 4666 
L 4128 4666 
L 4128 1753 
Q 4128 841 3676 375 
Q 3225 -91 2344 -91 
Q 1459 -91 1007 375 
Q 556 841 556 1753 
L 556 4666 
z
" transform="scale(0.015625)"/>
       <path id="DejaVuSans-41" d="M 2188 4044 
L 1331 1722 
L 3047 1722 
L 2188 4044 
z
M 1831 4666 
L 2547 4666 
L 4325 0 
L 3669 0 
L 3244 1197 
L 1141 1197 
L 716 0 
L 50 0 
L 1831 4666 
z
" transform="scale(0.015625)"/>
       <path id="DejaVuSans-56" d="M 1831 0 
L 50 4666 
L 709 4666 
L 2188 738 
L 3669 4666 
L 4325 4666 
L 2547 0 
L 1831 0 
z
" transform="scale(0.015625)"/>
       <path id="DejaVuSans-20" transform="scale(0.015625)"/>
       <path id="DejaVuSans-74" d="M 1172 4494 
L 1172 3500 
L 2356 3500 
L 2356 3053 
L 1172 3053 
L 1172 1153 
Q 1172 725 1289 603 
Q 1406 481 1766 481 
L 2356 481 
L 2356 0 
L 1766 0 
Q 1100 0 847 248 
Q 594 497 594 1153 
L 594 3053 
L 172 3053 
L 172 3500 
L 594 3500 
L 594 4494 
L 1172 4494 
z
" transform="scale(0.015625)"/>
       <path id="DejaVuSans-72" d="M 2631 2963 
Q 2534 3019 2420 3045 
Q 2306 3072 2169 3072 
Q 1681 3072 1420 2755 
Q 1159 2438 1159 1844 
L 1159 0 
L 581 0 
L 581 3500 
L 1159 3500 
L 1159 2956 
Q 1341 3275 1631 3429 
Q 1922 3584 2338 3584 
Q 2397 3584 2469 3576 
Q 2541 3569 2628 3553 
L 2631 2963 
z
" transform="scale(0.015625)"/>
       <path id="DejaVuSans-61" d="M 2194 1759 
Q 1497 1759 1228 1600 
Q 959 1441 959 1056 
Q 959 750 1161 570 
Q 1363 391 1709 391 
Q 2188 391 2477 730 
Q 2766 1069 2766 1631 
L 2766 1759 
L 2194 1759 
z
M 3341 1997 
L 3341 0 
L 2766 0 
L 2766 531 
Q 2569 213 2275 61 
Q 1981 -91 1556 -91 
Q 1019 -91 701 211 
Q 384 513 384 1019 
Q 384 1609 779 1909 
Q 1175 2209 1959 2209 
L 2766 2209 
L 2766 2266 
Q 2766 2663 2505 2880 
Q 2244 3097 1772 3097 
Q 1472 3097 1187 3025 
Q 903 2953 641 2809 
L 641 3341 
Q 956 3463 1253 3523 
Q 1550 3584 1831 3584 
Q 2591 3584 2966 3190 
Q 3341 2797 3341 1997 
z
" transform="scale(0.015625)"/>
       <path id="DejaVuSans-6e" d="M 3513 2113 
L 3513 0 
L 2938 0 
L 2938 2094 
Q 2938 2591 2744 2837 
Q 2550 3084 2163 3084 
Q 1697 3084 1428 2787 
Q 1159 2491 1159 1978 
L 1159 0 
L 581 0 
L 581 3500 
L 1159 3500 
L 1159 2956 
Q 1366 3272 1645 3428 
Q 1925 3584 2291 3584 
Q 2894 3584 3203 3211 
Q 3513 2838 3513 2113 
z
" transform="scale(0.015625)"/>
       <path id="DejaVuSans-73" d="M 2834 3397 
L 2834 2853 
Q 2591 2978 2328 3040 
Q 2066 3103 1784 3103 
Q 1356 3103 1142 2972 
Q 928 2841 928 2578 
Q 928 2378 1081 2264 
Q 1234 2150 1697 2047 
L 1894 2003 
Q 2506 1872 2764 1633 
Q 3022 1394 3022 966 
Q 3022 478 2636 193 
Q 2250 -91 1575 -91 
Q 1294 -91 989 -36 
Q 684 19 347 128 
L 347 722 
Q 666 556 975 473 
Q 1284 391 1588 391 
Q 1994 391 2212 530 
Q 2431 669 2431 922 
Q 2431 1156 2273 1281 
Q 2116 1406 1581 1522 
L 1381 1569 
Q 847 1681 609 1914 
Q 372 2147 372 2553 
Q 372 3047 722 3315 
Q 1072 3584 1716 3584 
Q 2034 3584 2315 3537 
Q 2597 3491 2834 3397 
z
" transform="scale(0.015625)"/>
       <path id="DejaVuSans-6d" d="M 3328 2828 
Q 3544 3216 3844 3400 
Q 4144 3584 4550 3584 
Q 5097 3584 5394 3201 
Q 5691 2819 5691 2113 
L 5691 0 
L 5113 0 
L 5113 2094 
Q 5113 2597 4934 2840 
Q 4756 3084 4391 3084 
Q 3944 3084 3684 2787 
Q 3425 2491 3425 1978 
L 3425 0 
L 2847 0 
L 2847 2094 
Q 2847 2600 2669 2842 
Q 2491 3084 2119 3084 
Q 1678 3084 1418 2786 
Q 1159 2488 1159 1978 
L 1159 0 
L 581 0 
L 581 3500 
L 1159 3500 
L 1159 2956 
Q 1356 3278 1631 3431 
Q 1906 3584 2284 3584 
Q 2666 3584 2933 3390 
Q 3200 3197 3328 2828 
z
" transform="scale(0.015625)"/>
       <path id="DejaVuSans-69" d="M 603 3500 
L 1178 3500 
L 1178 0 
L 603 0 
L 603 3500 
z
M 603 4863 
L 1178 4863 
L 1178 4134 
L 603 4134 
L 603 4863 
z
" transform="scale(0.015625)"/>
       <path id="DejaVuSans-6f" d="M 1959 3097 
Q 1497 3097 1228 2736 
Q 959 2375 959 1747 
Q 959 1119 1226 758 
Q 1494 397 1959 397 
Q 2419 397 2687 759 
Q 2956 1122 2956 1747 
Q 2956 2369 2687 2733 
Q 2419 3097 1959 3097 
z
M 1959 3584 
Q 2709 3584 3137 3096 
Q 3566 2609 3566 1747 
Q 3566 888 3137 398 
Q 2709 -91 1959 -91 
Q 1206 -91 779 398 
Q 353 888 353 1747 
Q 353 2609 779 3096 
Q 1206 3584 1959 3584 
z
" transform="scale(0.015625)"/>
       <path id="DejaVuSans-70" d="M 1159 525 
L 1159 -1331 
L 581 -1331 
L 581 3500 
L 1159 3500 
L 1159 2969 
Q 1341 3281 1617 3432 
Q 1894 3584 2278 3584 
Q 2916 3584 3314 3078 
Q 3713 2572 3713 1747 
Q 3713 922 3314 415 
Q 2916 -91 2278 -91 
Q 1894 -91 1617 61 
Q 1341 213 1159 525 
z
M 3116 1747 
Q 3116 2381 2855 2742 
Q 2594 3103 2138 3103 
Q 1681 3103 1420 2742 
Q 1159 2381 1159 1747 
Q 1159 1113 1420 752 
Q 1681 391 2138 391 
Q 2594 391 2855 752 
Q 3116 1113 3116 1747 
z
" transform="scale(0.015625)"/>
       <path id="DejaVuSans-77" d="M 269 3500 
L 844 3500 
L 1563 769 
L 2278 3500 
L 2956 3500 
L 3675 769 
L 4391 3500 
L 4966 3500 
L 4050 0 
L 3372 0 
L 2619 2869 
L 1863 0 
L 1184 0 
L 269 3500 
z
" transform="scale(0.015625)"/>
       <path id="DejaVuSans-65" d="M 3597 1894 
L 3597 1613 
L 953 1613 
Q 991 1019 1311 708 
Q 1631 397 2203 397 
Q 2534 397 2845 478 
Q 3156 559 3463 722 
L 3463 178 
Q 3153 47 2828 -22 
Q 2503 -91 2169 -91 
Q 1331 -91 842 396 
Q 353 884 353 1716 
Q 353 2575 817 3079 
Q 1281 3584 2069 3584 
Q 2775 3584 3186 3129 
Q 3597 2675 3597 1894 
z
M 3022 2063 
Q 3016 2534 2758 2815 
Q 2500 3097 2075 3097 
Q 1594 3097 1305 2825 
Q 1016 2553 972 2059 
L 3022 2063 
z
" transform="scale(0.015625)"/>
       <path id="DejaVuSans-28" d="M 1984 4856 
Q 1566 4138 1362 3434 
Q 1159 2731 1159 2009 
Q 1159 1288 1364 580 
Q 1569 -128 1984 -844 
L 1484 -844 
Q 1016 -109 783 600 
Q 550 1309 550 2009 
Q 550 2706 781 3412 
Q 1013 4119 1484 4856 
L 1984 4856 
z
" transform="scale(0.015625)"/>
       <path id="DejaVuSans-57" d="M 213 4666 
L 850 4666 
L 1831 722 
L 2809 4666 
L 3519 4666 
L 4500 722 
L 5478 4666 
L 6119 4666 
L 4947 0 
L 4153 0 
L 3169 4050 
L 2175 0 
L 1381 0 
L 213 4666 
z
" transform="scale(0.015625)"/>
       <path id="DejaVuSans-29" d="M 513 4856 
L 1013 4856 
Q 1481 4119 1714 3412 
Q 1947 2706 1947 2009 
Q 1947 1309 1714 600 
Q 1481 -109 1013 -844 
L 513 -844 
Q 928 -128 1133 580 
Q 1338 1288 1338 2009 
Q 1338 2731 1133 3434 
Q 928 4138 513 4856 
z
" transform="scale(0.015625)"/>
      </defs>
      <use xlink:href="#DejaVuSans-55"/>
      <use xlink:href="#DejaVuSans-41" transform="translate(73.193359 0)"/>
      <use xlink:href="#DejaVuSans-56" transform="translate(135.226562 0)"/>
      <use xlink:href="#DejaVuSans-20" transform="translate(203.634766 0)"/>
      <use xlink:href="#DejaVuSans-74" transform="translate(235.421875 0)"/>
      <use xlink:href="#DejaVuSans-72" transform="translate(274.630859 0)"/>
      <use xlink:href="#DejaVuSans-61" transform="translate(315.744141 0)"/>
      <use xlink:href="#DejaVuSans-6e" transform="translate(377.023438 0)"/>
      <use xlink:href="#DejaVuSans-73" transform="translate(440.402344 0)"/>
      <use xlink:href="#DejaVuSans-6d" transform="translate(492.501953 0)"/>
      <use xlink:href="#DejaVuSans-69" transform="translate(589.914062 0)"/>
      <use xlink:href="#DejaVuSans-73" transform="translate(617.697266 0)"/>
      <use xlink:href="#DejaVuSans-73" transform="translate(669.796875 0)"/>
      <use xlink:href="#DejaVuSans-69" transform="translate(721.896484 0)"/>
      <use xlink:href="#DejaVuSans-6f" transform="translate(749.679688 0)"/>
      <use xlink:href="#DejaVuSans-6e" transform="translate(810.861328 0)"/>
      <use xlink:href="#DejaVuSans-20" transform="translate(874.240234 0)"/>
      <use xlink:href="#DejaVuSans-70" transform="translate(906.027344 0)"/>
      <use xlink:href="#DejaVuSans-6f" transform="translate(969.503906 0)"/>
      <use xlink:href="#DejaVuSans-77" transform="translate(1030.685547 0)"/>
      <use xlink:href="#DejaVuSans-65" transform="translate(1112.472656 0)"/>
      <use xlink:href="#DejaVuSans-72" transform="translate(1173.996094 0)"/>
      <use xlink:href="#DejaVuSans-20" transform="translate(1215.109375 0)"/>
      <use xlink:href="#DejaVuSans-28" transform="translate(1246.896484 0)"/>
      <use xlink:href="#DejaVuSans-57" transform="translate(1285.910156 0)"/>
      <use xlink:href="#DejaVuSans-29" transform="translate(1384.787109 0)"/>
     </g>
    </g>
   </g>
   <g id="matplotlib.axis_2">
    <g id="ytick_1">
     <g id="line2d_13">
      <path d="M 57.6 295.488216 
L 414.72 295.488216 
" clip-path="url(#pbc86044d48)" style="fill: none; stroke: #b0b0b0; stroke-width: 0.8; stroke-linecap: square"/>
     </g>
     <g id="line2d_14">
      <defs>
       <path id="m1fc6dd40d7" d="M 0 0 
L -3.5 0 
" style="stroke: #000000; stroke-width: 0.8"/>
      </defs>
      <g>
       <use xlink:href="#m1fc6dd40d7" x="57.6" y="295.488216" style="stroke: #000000; stroke-width: 0.8"/>
      </g>
     </g>
     <g id="text_8">
      <!-- 500 -->
      <g transform="translate(31.5125 299.287434) scale(0.1 -0.1)">
       <defs>
        <path id="DejaVuSans-35" d="M 691 4666 
L 3169 4666 
L 3169 4134 
L 1269 4134 
L 1269 2991 
Q 1406 3038 1543 3061 
Q 1681 3084 1819 3084 
Q 2600 3084 3056 2656 
Q 3513 2228 3513 1497 
Q 3513 744 3044 326 
Q 2575 -91 1722 -91 
Q 1428 -91 1123 -41 
Q 819 9 494 109 
L 494 744 
Q 775 591 1075 516 
Q 1375 441 1709 441 
Q 2250 441 2565 725 
Q 2881 1009 2881 1497 
Q 2881 1984 2565 2268 
Q 2250 2553 1709 2553 
Q 1456 2553 1204 2497 
Q 953 2441 691 2322 
L 691 4666 
z
" transform="scale(0.015625)"/>
       </defs>
       <use xlink:href="#DejaVuSans-35"/>
       <use xlink:href="#DejaVuSans-30" transform="translate(63.623047 0)"/>
       <use xlink:href="#DejaVuSans-30" transform="translate(127.246094 0)"/>
      </g>
     </g>
    </g>
    <g id="ytick_2">
     <g id="line2d_15">
      <path d="M 57.6 237.102767 
L 414.72 237.102767 
" clip-path="url(#pbc86044d48)" style="fill: none; stroke: #b0b0b0; stroke-width: 0.8; stroke-linecap: square"/>
     </g>
     <g id="line2d_16">
      <g>
       <use xlink:href="#m1fc6dd40d7" x="57.6" y="237.102767" style="stroke: #000000; stroke-width: 0.8"/>
      </g>
     </g>
     <g id="text_9">
      <!-- 600 -->
      <g transform="translate(31.5125 240.901986) scale(0.1 -0.1)">
       <use xlink:href="#DejaVuSans-36"/>
       <use xlink:href="#DejaVuSans-30" transform="translate(63.623047 0)"/>
       <use xlink:href="#DejaVuSans-30" transform="translate(127.246094 0)"/>
      </g>
     </g>
    </g>
    <g id="ytick_3">
     <g id="line2d_17">
      <path d="M 57.6 178.717318 
L 414.72 178.717318 
" clip-path="url(#pbc86044d48)" style="fill: none; stroke: #b0b0b0; stroke-width: 0.8; stroke-linecap: square"/>
     </g>
     <g id="line2d_18">
      <g>
       <use xlink:href="#m1fc6dd40d7" x="57.6" y="178.717318" style="stroke: #000000; stroke-width: 0.8"/>
      </g>
     </g>
     <g id="text_10">
      <!-- 700 -->
      <g transform="translate(31.5125 182.516537) scale(0.1 -0.1)">
       <defs>
        <path id="DejaVuSans-37" d="M 525 4666 
L 3525 4666 
L 3525 4397 
L 1831 0 
L 1172 0 
L 2766 4134 
L 525 4134 
L 525 4666 
z
" transform="scale(0.015625)"/>
       </defs>
       <use xlink:href="#DejaVuSans-37"/>
       <use xlink:href="#DejaVuSans-30" transform="translate(63.623047 0)"/>
       <use xlink:href="#DejaVuSans-30" transform="translate(127.246094 0)"/>
      </g>
     </g>
    </g>
    <g id="ytick_4">
     <g id="line2d_19">
      <path d="M 57.6 120.331869 
L 414.72 120.331869 
" clip-path="url(#pbc86044d48)" style="fill: none; stroke: #b0b0b0; stroke-width: 0.8; stroke-linecap: square"/>
     </g>
     <g id="line2d_20">
      <g>
       <use xlink:href="#m1fc6dd40d7" x="57.6" y="120.331869" style="stroke: #000000; stroke-width: 0.8"/>
      </g>
     </g>
     <g id="text_11">
      <!-- 800 -->
      <g transform="translate(31.5125 124.131088) scale(0.1 -0.1)">
       <use xlink:href="#DejaVuSans-38"/>
       <use xlink:href="#DejaVuSans-30" transform="translate(63.623047 0)"/>
       <use xlink:href="#DejaVuSans-30" transform="translate(127.246094 0)"/>
      </g>
     </g>
    </g>
    <g id="ytick_5">
     <g id="line2d_21">
      <path d="M 57.6 61.94642 
L 414.72 61.94642 
" clip-path="url(#pbc86044d48)" style="fill: none; stroke: #b0b0b0; stroke-width: 0.8; stroke-linecap: square"/>
     </g>
     <g id="line2d_22">
      <g>
       <use xlink:href="#m1fc6dd40d7" x="57.6" y="61.94642" style="stroke: #000000; stroke-width: 0.8"/>
      </g>
     </g>
     <g id="text_12">
      <!-- 900 -->
      <g transform="translate(31.5125 65.745639) scale(0.1 -0.1)">
       <defs>
        <path id="DejaVuSans-39" d="M 703 97 
L 703 672 
Q 941 559 1184 500 
Q 1428 441 1663 441 
Q 2288 441 2617 861 
Q 2947 1281 2994 2138 
Q 2813 1869 2534 1725 
Q 2256 1581 1919 1581 
Q 1219 1581 811 2004 
Q 403 2428 403 3163 
Q 403 3881 828 4315 
Q 1253 4750 1959 4750 
Q 2769 4750 3195 4129 
Q 3622 3509 3622 2328 
Q 3622 1225 3098 567 
Q 2575 -91 1691 -91 
Q 1453 -91 1209 -44 
Q 966 3 703 97 
z
M 1959 2075 
Q 2384 2075 2632 2365 
Q 2881 2656 2881 3163 
Q 2881 3666 2632 3958 
Q 2384 4250 1959 4250 
Q 1534 4250 1286 3958 
Q 1038 3666 1038 3163 
Q 1038 2656 1286 2365 
Q 1534 2075 1959 2075 
z
" transform="scale(0.015625)"/>
       </defs>
       <use xlink:href="#DejaVuSans-39"/>
       <use xlink:href="#DejaVuSans-30" transform="translate(63.623047 0)"/>
       <use xlink:href="#DejaVuSans-30" transform="translate(127.246094 0)"/>
      </g>
     </g>
    </g>
    <g id="text_13">
     <!-- Optimal radius (m) -->
     <g transform="translate(25.432812 221.717062) rotate(-90) scale(0.1 -0.1)">
      <defs>
       <path id="DejaVuSans-4f" d="M 2522 4238 
Q 1834 4238 1429 3725 
Q 1025 3213 1025 2328 
Q 1025 1447 1429 934 
Q 1834 422 2522 422 
Q 3209 422 3611 934 
Q 4013 1447 4013 2328 
Q 4013 3213 3611 3725 
Q 3209 4238 2522 4238 
z
M 2522 4750 
Q 3503 4750 4090 4092 
Q 4678 3434 4678 2328 
Q 4678 1225 4090 567 
Q 3503 -91 2522 -91 
Q 1538 -91 948 565 
Q 359 1222 359 2328 
Q 359 3434 948 4092 
Q 1538 4750 2522 4750 
z
" transform="scale(0.015625)"/>
       <path id="DejaVuSans-6c" d="M 603 4863 
L 1178 4863 
L 1178 0 
L 603 0 
L 603 4863 
z
" transform="scale(0.015625)"/>
       <path id="DejaVuSans-64" d="M 2906 2969 
L 2906 4863 
L 3481 4863 
L 3481 0 
L 2906 0 
L 2906 525 
Q 2725 213 2448 61 
Q 2172 -91 1784 -91 
Q 1150 -91 751 415 
Q 353 922 353 1747 
Q 353 2572 751 3078 
Q 1150 3584 1784 3584 
Q 2172 3584 2448 3432 
Q 2725 3281 2906 2969 
z
M 947 1747 
Q 947 1113 1208 752 
Q 1469 391 1925 391 
Q 2381 391 2643 752 
Q 2906 1113 2906 1747 
Q 2906 2381 2643 2742 
Q 2381 3103 1925 3103 
Q 1469 3103 1208 2742 
Q 947 2381 947 1747 
z
" transform="scale(0.015625)"/>
       <path id="DejaVuSans-75" d="M 544 1381 
L 544 3500 
L 1119 3500 
L 1119 1403 
Q 1119 906 1312 657 
Q 1506 409 1894 409 
Q 2359 409 2629 706 
Q 2900 1003 2900 1516 
L 2900 3500 
L 3475 3500 
L 3475 0 
L 2900 0 
L 2900 538 
Q 2691 219 2414 64 
Q 2138 -91 1772 -91 
Q 1169 -91 856 284 
Q 544 659 544 1381 
z
M 1991 3584 
L 1991 3584 
z
" transform="scale(0.015625)"/>
      </defs>
      <use xlink:href="#DejaVuSans-4f"/>
      <use xlink:href="#DejaVuSans-70" transform="translate(78.710938 0)"/>
      <use xlink:href="#DejaVuSans-74" transform="translate(142.1875 0)"/>
      <use xlink:href="#DejaVuSans-69" transform="translate(181.396484 0)"/>
      <use xlink:href="#DejaVuSans-6d" transform="translate(209.179688 0)"/>
      <use xlink:href="#DejaVuSans-61" transform="translate(306.591797 0)"/>
      <use xlink:href="#DejaVuSans-6c" transform="translate(367.871094 0)"/>
      <use xlink:href="#DejaVuSans-20" transform="translate(395.654297 0)"/>
      <use xlink:href="#DejaVuSans-72" transform="translate(427.441406 0)"/>
      <use xlink:href="#DejaVuSans-61" transform="translate(468.554688 0)"/>
      <use xlink:href="#DejaVuSans-64" transform="translate(529.833984 0)"/>
      <use xlink:href="#DejaVuSans-69" transform="translate(593.310547 0)"/>
      <use xlink:href="#DejaVuSans-75" transform="translate(621.09375 0)"/>
      <use xlink:href="#DejaVuSans-73" transform="translate(684.472656 0)"/>
      <use xlink:href="#DejaVuSans-20" transform="translate(736.572266 0)"/>
      <use xlink:href="#DejaVuSans-28" transform="translate(768.359375 0)"/>
      <use xlink:href="#DejaVuSans-6d" transform="translate(807.373047 0)"/>
      <use xlink:href="#DejaVuSans-29" transform="translate(904.785156 0)"/>
     </g>
    </g>
   </g>
   <g id="line2d_23">
    <path d="M 73.832727 295.488 
L 344.103516 295.451947 
L 358.93545 295.468554 
L 367.175413 295.46981 
L 398.487273 295.472741 
L 398.487273 295.472741 
" clip-path="url(#pbc86044d48)" style="fill: none; stroke: #ff0000; stroke-width: 1.5; stroke-linecap: square"/>
   </g>
   <g id="line2d_24">
    <path d="M 73.832727 291.916135 
L 75.48072 290.435445 
L 77.128713 289.120438 
L 78.776705 288.430089 
L 80.424698 288.052929 
L 82.07269 288.060792 
L 83.720683 288.632479 
L 85.368676 288.913201 
L 88.664661 289.123082 
L 90.312653 288.914032 
L 91.960646 288.971206 
L 93.608639 288.685553 
L 96.904624 288.688728 
L 100.200609 288.259686 
L 101.848602 287.843355 
L 105.144587 287.57758 
L 108.440572 286.720307 
L 111.736557 285.709758 
L 115.032543 284.952267 
L 118.328528 284.72219 
L 119.976521 284.283913 
L 121.624513 284.10521 
L 123.272506 283.239414 
L 126.568491 282.633776 
L 129.864476 282.045584 
L 131.512469 282.305854 
L 133.160461 281.58029 
L 134.808454 281.89856 
L 138.104439 281.534287 
L 139.752432 281.561868 
L 141.400425 281.325944 
L 143.048417 280.733948 
L 144.69641 280.000278 
L 146.344402 279.924339 
L 147.992395 279.556057 
L 149.640388 279.695766 
L 151.28838 279.358754 
L 152.936373 278.881161 
L 159.528343 277.656598 
L 167.768306 276.803492 
L 169.416299 276.006754 
L 171.064292 275.54854 
L 172.712284 274.621026 
L 174.360277 274.31244 
L 176.008269 274.311403 
L 177.656262 273.787116 
L 180.952247 273.341185 
L 182.60024 272.83336 
L 184.248233 272.634904 
L 189.19221 271.698583 
L 190.840203 270.872912 
L 192.488196 270.5861 
L 195.784181 269.085761 
L 197.432174 268.899582 
L 199.080166 268.389911 
L 200.728159 267.675303 
L 204.024144 266.960067 
L 212.264107 265.931285 
L 213.9121 265.180828 
L 215.560092 264.688191 
L 217.208085 264.000241 
L 220.50407 263.605248 
L 222.152063 263.515959 
L 223.800055 263.077606 
L 227.096041 262.478422 
L 228.744033 261.899095 
L 230.392026 262.345017 
L 232.040018 262.263752 
L 233.688011 261.498748 
L 238.631989 260.728574 
L 240.279982 260.659426 
L 241.927974 260.148557 
L 243.575967 259.833878 
L 245.223959 259.207992 
L 246.871952 259.859734 
L 248.519945 259.273849 
L 250.167937 259.058175 
L 253.463922 258.797481 
L 256.759908 257.874948 
L 260.055893 257.020267 
L 261.703886 256.85771 
L 263.351878 256.505717 
L 269.943849 256.195411 
L 271.591841 255.81133 
L 274.887826 255.913946 
L 276.535819 255.32571 
L 278.183812 255.303017 
L 279.831804 254.998803 
L 281.479797 254.571506 
L 283.12779 254.500328 
L 284.775782 254.199904 
L 286.423775 253.780318 
L 288.071767 253.697763 
L 289.71976 253.314592 
L 291.367753 252.798741 
L 293.015745 252.514624 
L 294.663738 252.106642 
L 296.311731 251.130893 
L 301.255708 250.383726 
L 302.903701 249.618191 
L 304.551694 249.553552 
L 306.199686 249.756767 
L 307.847679 249.722769 
L 311.143664 249.091277 
L 312.791657 249.054317 
L 314.439649 249.636101 
L 316.087642 249.411211 
L 317.735635 248.854333 
L 319.383627 250.243936 
L 321.03162 249.896717 
L 322.679612 249.428037 
L 324.327605 248.815905 
L 325.975598 248.551907 
L 327.62359 248.164868 
L 329.271583 248.204377 
L 335.863553 247.702298 
L 337.511546 247.121847 
L 339.159539 246.940925 
L 340.807531 246.520465 
L 342.455524 246.280777 
L 344.103516 246.20426 
L 347.399502 245.540727 
L 350.695487 244.56261 
L 352.343479 244.434891 
L 355.639465 243.86086 
L 357.287457 243.899933 
L 358.93545 243.246244 
L 360.583443 243.437972 
L 363.879428 243.169967 
L 365.52742 242.694823 
L 367.175413 242.799286 
L 368.823406 242.339417 
L 372.119391 241.876694 
L 373.767383 241.832169 
L 375.415376 241.602814 
L 377.063369 241.18411 
L 378.711361 241.194917 
L 380.359354 240.792118 
L 382.007347 240.76472 
L 383.655339 240.138752 
L 386.951324 240.121589 
L 391.895302 239.354593 
L 393.543295 238.956869 
L 395.191287 238.298362 
L 396.83928 238.221353 
L 398.487273 238.424513 
L 398.487273 238.424513 
" clip-path="url(#pbc86044d48)" style="fill: none; stroke: #008000; stroke-width: 1.5; stroke-linecap: square"/>
   </g>
   <g id="line2d_25">
    <path d="M 73.832727 265.568351 
L 75.48072 263.646379 
L 77.128713 262.260483 
L 78.776705 257.787155 
L 80.424698 258.241165 
L 82.07269 255.891408 
L 83.720683 249.559912 
L 85.368676 241.144321 
L 87.016668 237.308603 
L 88.664661 232.505834 
L 90.312653 230.891819 
L 93.608639 224.637986 
L 95.256631 215.985548 
L 96.904624 210.628034 
L 98.552617 205.893426 
L 100.200609 203.872311 
L 101.848602 199.671966 
L 103.496594 196.313756 
L 105.144587 195.211419 
L 106.79258 191.288178 
L 111.736557 185.180142 
L 113.38455 181.411432 
L 115.032543 184.582794 
L 116.680535 182.470501 
L 118.328528 181.232095 
L 119.976521 171.636614 
L 121.624513 175.022516 
L 123.272506 171.462242 
L 124.920498 171.258719 
L 126.568491 170.772605 
L 128.216484 167.497216 
L 129.864476 167.26399 
L 131.512469 166.884703 
L 133.160461 167.066592 
L 134.808454 162.995586 
L 136.456447 161.564475 
L 138.104439 158.98196 
L 139.752432 161.076326 
L 141.400425 157.816864 
L 143.048417 156.394284 
L 144.69641 155.180319 
L 146.344402 151.113284 
L 149.640388 151.686873 
L 151.28838 152.462926 
L 152.936373 151.29262 
L 154.584365 147.865234 
L 156.232358 146.707645 
L 157.880351 146.844382 
L 159.528343 144.468422 
L 161.176336 141.711342 
L 162.824329 142.60445 
L 164.472321 138.508072 
L 166.120314 137.652702 
L 167.768306 135.178233 
L 169.416299 134.575339 
L 171.064292 133.57826 
L 172.712284 131.923276 
L 174.360277 132.81205 
L 176.008269 132.642868 
L 177.656262 132.040782 
L 179.304255 131.193427 
L 180.952247 128.428401 
L 182.60024 126.467461 
L 184.248233 128.176164 
L 185.896225 124.398509 
L 187.544218 122.653903 
L 189.19221 121.263347 
L 190.840203 119.570444 
L 192.488196 119.832349 
L 194.136188 115.869697 
L 195.784181 116.871698 
L 197.432174 115.899287 
L 199.080166 115.090821 
L 200.728159 114.908105 
L 202.376151 118.913566 
L 204.024144 119.04756 
L 205.672137 116.43467 
L 207.320129 116.4797 
L 208.968122 114.9009 
L 210.616114 112.001944 
L 212.264107 112.424833 
L 213.9121 111.680859 
L 215.560092 111.784904 
L 217.208085 109.758367 
L 218.856078 108.485679 
L 220.50407 108.469492 
L 222.152063 107.505072 
L 223.800055 105.318518 
L 225.448048 104.511206 
L 227.096041 102.656652 
L 228.744033 101.963907 
L 230.392026 101.108878 
L 232.040018 101.290768 
L 233.688011 101.145493 
L 235.336004 98.891593 
L 236.983996 97.385329 
L 238.631989 96.894882 
L 240.279982 95.918373 
L 241.927974 92.791228 
L 243.575967 91.954747 
L 245.223959 93.191062 
L 246.871952 93.370036 
L 248.519945 91.642821 
L 250.167937 93.87919 
L 251.81593 94.251481 
L 253.463922 93.885257 
L 255.111915 92.29485 
L 256.759908 90.866908 
L 258.4079 90.484617 
L 260.055893 87.329082 
L 261.703886 85.854029 
L 263.351878 85.328542 
L 264.999871 83.440224 
L 266.647863 83.572413 
L 268.295856 83.040062 
L 269.943849 81.134968 
L 271.591841 81.695137 
L 273.239834 80.033011 
L 274.887826 80.852427 
L 276.535819 79.954386 
L 278.183812 77.984746 
L 279.831804 77.240485 
L 281.479797 78.11515 
L 283.12779 76.04312 
L 286.423775 75.805025 
L 288.071767 74.690219 
L 289.71976 75.382505 
L 291.367753 75.843572 
L 293.015745 75.341678 
L 294.663738 72.977333 
L 296.311731 75.711381 
L 297.959723 75.758633 
L 301.255708 74.169983 
L 302.903701 72.904335 
L 304.551694 71.911638 
L 306.199686 71.700058 
L 307.847679 72.415082 
L 309.495671 71.170034 
L 311.143664 70.980301 
L 312.791657 70.407679 
L 314.439649 70.692876 
L 316.087642 69.597885 
L 317.735635 69.076072 
L 319.383627 68.854175 
L 321.03162 68.970425 
L 324.327605 67.072569 
L 325.975598 65.795207 
L 327.62359 63.048337 
L 329.271583 63.294267 
L 330.919575 65.215654 
L 332.567568 65.937617 
L 334.215561 64.760849 
L 335.863553 65.895986 
L 337.511546 64.098428 
L 339.159539 63.71454 
L 340.807531 63.863896 
L 342.455524 61.176326 
L 344.103516 60.500793 
L 345.751509 60.197798 
L 347.399502 60.355056 
L 349.047494 57.779844 
L 350.695487 58.254821 
L 352.343479 62.827166 
L 353.991472 62.392753 
L 355.639465 60.998398 
L 357.287457 61.12742 
L 358.93545 59.979196 
L 360.583443 60.045353 
L 362.231435 59.479013 
L 363.879428 57.21214 
L 365.52742 58.775201 
L 367.175413 54.895289 
L 368.823406 57.978424 
L 370.471398 58.521767 
L 372.119391 58.037356 
L 373.767383 56.98587 
L 375.415376 55.085187 
L 377.063369 56.630599 
L 378.711361 57.339039 
L 380.359354 55.954432 
L 382.007347 53.943361 
L 383.655339 55.199145 
L 385.303332 56.204404 
L 386.951324 56.709881 
L 388.599317 56.524909 
L 390.24731 53.568 
L 391.895302 55.093237 
L 393.543295 54.100669 
L 395.191287 55.033332 
L 396.83928 54.083094 
L 398.487273 54.15943 
L 398.487273 54.15943 
" clip-path="url(#pbc86044d48)" style="fill: none; stroke: #0000ff; stroke-width: 1.5; stroke-linecap: square"/>
   </g>
   <g id="patch_3">
    <path d="M 57.6 307.584 
L 57.6 41.472 
" style="fill: none; stroke: #000000; stroke-width: 0.8; stroke-linejoin: miter; stroke-linecap: square"/>
   </g>
   <g id="patch_4">
    <path d="M 414.72 307.584 
L 414.72 41.472 
" style="fill: none; stroke: #000000; stroke-width: 0.8; stroke-linejoin: miter; stroke-linecap: square"/>
   </g>
   <g id="patch_5">
    <path d="M 57.6 307.584 
L 414.72 307.584 
" style="fill: none; stroke: #000000; stroke-width: 0.8; stroke-linejoin: miter; stroke-linecap: square"/>
   </g>
   <g id="patch_6">
    <path d="M 57.6 41.472 
L 414.72 41.472 
" style="fill: none; stroke: #000000; stroke-width: 0.8; stroke-linejoin: miter; stroke-linecap: square"/>
   </g>
   <g id="legend_1">
    <g id="patch_7">
     <path d="M 64.6 93.506375 
L 189.579688 93.506375 
Q 191.579688 93.506375 191.579688 91.506375 
L 191.579688 48.472 
Q 191.579688 46.472 189.579688 46.472 
L 64.6 46.472 
Q 62.6 46.472 62.6 48.472 
L 62.6 91.506375 
Q 62.6 93.506375 64.6 93.506375 
z
" style="fill: #ffffff; opacity: 0.8; stroke: #cccccc; stroke-linejoin: miter"/>
    </g>
    <g id="line2d_26">
     <path d="M 66.6 54.570438 
L 76.6 54.570438 
L 86.6 54.570438 
" style="fill: none; stroke: #ff0000; stroke-width: 1.5; stroke-linecap: square"/>
    </g>
    <g id="text_14">
     <!-- variance = 1000m -->
     <g transform="translate(94.6 58.070438) scale(0.1 -0.1)">
      <defs>
       <path id="DejaVuSans-76" d="M 191 3500 
L 800 3500 
L 1894 563 
L 2988 3500 
L 3597 3500 
L 2284 0 
L 1503 0 
L 191 3500 
z
" transform="scale(0.015625)"/>
       <path id="DejaVuSans-63" d="M 3122 3366 
L 3122 2828 
Q 2878 2963 2633 3030 
Q 2388 3097 2138 3097 
Q 1578 3097 1268 2742 
Q 959 2388 959 1747 
Q 959 1106 1268 751 
Q 1578 397 2138 397 
Q 2388 397 2633 464 
Q 2878 531 3122 666 
L 3122 134 
Q 2881 22 2623 -34 
Q 2366 -91 2075 -91 
Q 1284 -91 818 406 
Q 353 903 353 1747 
Q 353 2603 823 3093 
Q 1294 3584 2113 3584 
Q 2378 3584 2631 3529 
Q 2884 3475 3122 3366 
z
" transform="scale(0.015625)"/>
       <path id="DejaVuSans-3d" d="M 678 2906 
L 4684 2906 
L 4684 2381 
L 678 2381 
L 678 2906 
z
M 678 1631 
L 4684 1631 
L 4684 1100 
L 678 1100 
L 678 1631 
z
" transform="scale(0.015625)"/>
      </defs>
      <use xlink:href="#DejaVuSans-76"/>
      <use xlink:href="#DejaVuSans-61" transform="translate(59.179688 0)"/>
      <use xlink:href="#DejaVuSans-72" transform="translate(120.458984 0)"/>
      <use xlink:href="#DejaVuSans-69" transform="translate(161.572266 0)"/>
      <use xlink:href="#DejaVuSans-61" transform="translate(189.355469 0)"/>
      <use xlink:href="#DejaVuSans-6e" transform="translate(250.634766 0)"/>
      <use xlink:href="#DejaVuSans-63" transform="translate(314.013672 0)"/>
      <use xlink:href="#DejaVuSans-65" transform="translate(368.994141 0)"/>
      <use xlink:href="#DejaVuSans-20" transform="translate(430.517578 0)"/>
      <use xlink:href="#DejaVuSans-3d" transform="translate(462.304688 0)"/>
      <use xlink:href="#DejaVuSans-20" transform="translate(546.09375 0)"/>
      <use xlink:href="#DejaVuSans-31" transform="translate(577.880859 0)"/>
      <use xlink:href="#DejaVuSans-30" transform="translate(641.503906 0)"/>
      <use xlink:href="#DejaVuSans-30" transform="translate(705.126953 0)"/>
      <use xlink:href="#DejaVuSans-30" transform="translate(768.75 0)"/>
      <use xlink:href="#DejaVuSans-6d" transform="translate(832.373047 0)"/>
     </g>
    </g>
    <g id="line2d_27">
     <path d="M 66.6 69.248563 
L 76.6 69.248563 
L 86.6 69.248563 
" style="fill: none; stroke: #008000; stroke-width: 1.5; stroke-linecap: square"/>
    </g>
    <g id="text_15">
     <!-- variance = 2000m -->
     <g transform="translate(94.6 72.748563) scale(0.1 -0.1)">
      <use xlink:href="#DejaVuSans-76"/>
      <use xlink:href="#DejaVuSans-61" transform="translate(59.179688 0)"/>
      <use xlink:href="#DejaVuSans-72" transform="translate(120.458984 0)"/>
      <use xlink:href="#DejaVuSans-69" transform="translate(161.572266 0)"/>
      <use xlink:href="#DejaVuSans-61" transform="translate(189.355469 0)"/>
      <use xlink:href="#DejaVuSans-6e" transform="translate(250.634766 0)"/>
      <use xlink:href="#DejaVuSans-63" transform="translate(314.013672 0)"/>
      <use xlink:href="#DejaVuSans-65" transform="translate(368.994141 0)"/>
      <use xlink:href="#DejaVuSans-20" transform="translate(430.517578 0)"/>
      <use xlink:href="#DejaVuSans-3d" transform="translate(462.304688 0)"/>
      <use xlink:href="#DejaVuSans-20" transform="translate(546.09375 0)"/>
      <use xlink:href="#DejaVuSans-32" transform="translate(577.880859 0)"/>
      <use xlink:href="#DejaVuSans-30" transform="translate(641.503906 0)"/>
      <use xlink:href="#DejaVuSans-30" transform="translate(705.126953 0)"/>
      <use xlink:href="#DejaVuSans-30" transform="translate(768.75 0)"/>
      <use xlink:href="#DejaVuSans-6d" transform="translate(832.373047 0)"/>
     </g>
    </g>
    <g id="line2d_28">
     <path d="M 66.6 83.926688 
L 76.6 83.926688 
L 86.6 83.926688 
" style="fill: none; stroke: #0000ff; stroke-width: 1.5; stroke-linecap: square"/>
    </g>
    <g id="text_16">
     <!-- variance = 3000m -->
     <g transform="translate(94.6 87.426688) scale(0.1 -0.1)">
      <defs>
       <path id="DejaVuSans-33" d="M 2597 2516 
Q 3050 2419 3304 2112 
Q 3559 1806 3559 1356 
Q 3559 666 3084 287 
Q 2609 -91 1734 -91 
Q 1441 -91 1130 -33 
Q 819 25 488 141 
L 488 750 
Q 750 597 1062 519 
Q 1375 441 1716 441 
Q 2309 441 2620 675 
Q 2931 909 2931 1356 
Q 2931 1769 2642 2001 
Q 2353 2234 1838 2234 
L 1294 2234 
L 1294 2753 
L 1863 2753 
Q 2328 2753 2575 2939 
Q 2822 3125 2822 3475 
Q 2822 3834 2567 4026 
Q 2313 4219 1838 4219 
Q 1578 4219 1281 4162 
Q 984 4106 628 3988 
L 628 4550 
Q 988 4650 1302 4700 
Q 1616 4750 1894 4750 
Q 2613 4750 3031 4423 
Q 3450 4097 3450 3541 
Q 3450 3153 3228 2886 
Q 3006 2619 2597 2516 
z
" transform="scale(0.015625)"/>
      </defs>
      <use xlink:href="#DejaVuSans-76"/>
      <use xlink:href="#DejaVuSans-61" transform="translate(59.179688 0)"/>
      <use xlink:href="#DejaVuSans-72" transform="translate(120.458984 0)"/>
      <use xlink:href="#DejaVuSans-69" transform="translate(161.572266 0)"/>
      <use xlink:href="#DejaVuSans-61" transform="translate(189.355469 0)"/>
      <use xlink:href="#DejaVuSans-6e" transform="translate(250.634766 0)"/>
      <use xlink:href="#DejaVuSans-63" transform="translate(314.013672 0)"/>
      <use xlink:href="#DejaVuSans-65" transform="translate(368.994141 0)"/>
      <use xlink:href="#DejaVuSans-20" transform="translate(430.517578 0)"/>
      <use xlink:href="#DejaVuSans-3d" transform="translate(462.304688 0)"/>
      <use xlink:href="#DejaVuSans-20" transform="translate(546.09375 0)"/>
      <use xlink:href="#DejaVuSans-33" transform="translate(577.880859 0)"/>
      <use xlink:href="#DejaVuSans-30" transform="translate(641.503906 0)"/>
      <use xlink:href="#DejaVuSans-30" transform="translate(705.126953 0)"/>
      <use xlink:href="#DejaVuSans-30" transform="translate(768.75 0)"/>
      <use xlink:href="#DejaVuSans-6d" transform="translate(832.373047 0)"/>
     </g>
    </g>
   </g>
  </g>
 </g>
 <defs>
  <clipPath id="pbc86044d48">
   <rect x="57.6" y="41.472" width="357.12" height="266.112"/>
  </clipPath>
 </defs>
</svg>
